<?xml version="1.0" standalone="no"?>
<!DOCTYPE svg PUBLIC "-//W3C//DTD SVG 20010904//EN"
 "http://www.w3.org/TR/2001/REC-SVG-20010904/DTD/svg10.dtd">
<svg version="1.0" xmlns="http://www.w3.org/2000/svg"
 width="906.000000pt" height="1000.000000pt" viewBox="0 0 906.000000 1000.000000"
 preserveAspectRatio="xMidYMid meet">

<g transform="translate(0.000000,1000.000000) scale(0.100000,-0.100000)"
fill="#000000" stroke="none">
<path d="M843 9990 c-31 -13 -29 -23 7 -37 42 -16 39 -45 -10 -84 -37 -30 -39
-35 -34 -70 6 -34 2 -42 -37 -85 -74 -79 -101 -105 -133 -121 -49 -24 -96 -63
-96 -78 0 -8 12 -20 27 -27 15 -7 29 -22 32 -33 5 -28 19 -34 58 -28 45 8 43
-8 -13 -67 -34 -36 -52 -69 -74 -131 -16 -45 -42 -101 -57 -123 -15 -23 -32
-51 -38 -63 -5 -12 -24 -37 -41 -56 -43 -46 -56 -74 -49 -98 6 -17 -28 -83
-55 -109 -26 -24 -115 -159 -125 -188 -16 -47 -12 -54 23 -36 36 18 62 18 62
-2 0 -8 -5 -36 -12 -61 -8 -35 -8 -50 0 -64 16 -25 15 -63 -3 -106 -8 -19 -15
-50 -15 -69 0 -26 -7 -39 -36 -61 -20 -15 -48 -38 -62 -50 -14 -13 -28 -23
-31 -23 -8 0 -56 -46 -98 -93 l-33 -36 0 -3866 c0 -2126 2 -3865 5 -3865 3 0
29 12 58 27 64 33 129 52 183 53 51 0 114 25 114 45 0 8 9 15 20 15 11 0 20
-7 20 -15 0 -20 102 -20 160 0 23 8 55 15 71 15 15 0 31 5 35 11 3 6 20 9 37
6 17 -2 76 7 131 20 56 14 112 25 126 25 48 0 240 55 240 69 0 4 9 9 20 12 12
3 20 14 20 26 0 12 5 22 10 22 100 13 147 11 239 -6 86 -17 94 -17 127 -2 19
10 41 17 48 17 8 0 72 -57 144 -127 232 -229 311 -292 447 -359 33 -16 62 -32
63 -36 2 -5 11 -8 20 -8 16 0 70 -16 107 -31 11 -5 36 -10 55 -12 32 -4 32 -4
-8 -5 -26 -1 -41 -6 -37 -12 8 -13 634 -13 654 -1 21 13 4 31 -31 31 -29 0
-69 14 -131 46 -16 8 -36 14 -45 14 -10 0 -22 10 -27 22 -7 17 -17 22 -37 20
-14 -2 -29 2 -33 8 -3 5 -22 17 -41 25 -19 8 -37 21 -40 30 -3 8 -12 15 -20
15 -7 0 -21 11 -30 24 -8 14 -25 26 -37 28 -12 2 -26 13 -32 26 -7 15 -18 22
-36 22 -24 0 -27 4 -36 61 -9 53 -8 63 8 82 12 14 18 17 19 8 0 -11 3 -11 15
-1 15 12 44 11 275 -10 187 -17 558 -15 602 3 19 8 47 12 62 10 15 -3 34 1 44
8 38 31 65 39 132 39 38 0 70 4 70 9 0 5 -30 15 -66 22 -67 13 -111 46 -100
76 3 7 -1 13 -9 13 -8 0 -19 18 -26 40 -7 22 -18 45 -26 51 -7 6 -13 17 -13
24 0 7 -10 15 -22 19 -34 8 -106 77 -113 107 -4 14 -24 48 -45 77 -21 28 -42
67 -45 86 -5 24 -11 33 -21 29 -8 -3 -26 3 -42 13 -15 10 -32 18 -38 19 -18 0
-93 87 -106 122 -7 18 -20 35 -30 39 -11 3 -18 15 -18 30 0 20 5 24 28 24 15
0 46 -9 69 -20 23 -10 50 -19 60 -19 10 0 43 -5 73 -12 30 -7 71 -13 90 -14
19 -1 48 -7 65 -14 16 -7 51 -17 77 -22 30 -7 46 -15 42 -21 -5 -8 3 -9 23 -5
21 4 43 0 68 -13 21 -11 41 -18 44 -16 3 2 26 0 51 -5 183 -38 394 -40 550 -5
36 8 72 14 80 15 119 2 346 12 383 17 44 5 47 7 29 19 -10 8 -50 19 -88 25
-38 7 -81 20 -96 31 -15 10 -32 19 -38 19 -5 0 -15 9 -22 21 -7 11 -29 30 -48
42 -19 12 -48 34 -65 49 -36 34 -95 62 -160 79 -27 6 -59 20 -71 30 -14 13
-36 19 -72 19 -32 0 -63 7 -84 19 -18 10 -57 24 -86 31 -28 7 -55 16 -58 21
-3 5 -16 9 -30 9 -14 0 -54 9 -89 21 -35 11 -69 18 -74 15 -10 -6 -26 32 -35
81 -3 18 1 49 9 70 8 23 14 30 14 19 1 -16 4 -17 13 -8 22 22 -3 45 -47 45
-72 -1 -72 -1 -81 -45 -11 -49 -34 -63 -35 -21 0 15 -3 22 -6 16 -6 -16 -65
26 -59 42 2 6 -2 22 -10 36 -7 13 -13 19 -14 12 0 -15 -37 -28 -70 -24 -36 4
-92 41 -86 57 6 16 -10 29 -19 14 -13 -21 -25 -9 -25 24 0 41 -8 66 -22 66 -6
0 -24 14 -41 31 -23 25 -38 31 -67 31 -43 -1 -57 21 -34 52 11 15 10 22 -3 42
-22 34 -33 30 -33 -11 0 -19 -3 -35 -8 -35 -16 0 -42 41 -42 66 0 22 -2 24
-15 14 -25 -20 -54 -3 -53 33 0 18 -1 64 -1 102 0 39 1 103 2 142 1 40 -1 73
-4 73 -14 0 -18 74 -5 90 22 25 29 70 11 70 -23 0 -18 38 9 63 32 30 40 86 16
112 -16 17 -18 31 -13 83 4 43 10 62 19 62 8 0 14 7 14 15 0 22 -81 9 -99 -16
-8 -11 -26 -19 -42 -19 -26 0 -29 4 -29 30 0 20 5 30 15 30 8 0 24 9 36 21 15
15 28 19 50 14 29 -7 29 -6 29 39 0 41 -2 46 -23 46 -16 0 -26 9 -34 30 -6 17
-18 30 -26 30 -18 0 -27 44 -17 82 10 32 2 96 -13 116 -5 6 -29 12 -52 12 -41
0 -43 1 -49 37 -10 62 -7 82 14 103 24 24 26 40 5 40 -8 0 -15 8 -15 18 -1 15
-2 15 -12 -2 -10 -17 -12 -15 -25 23 -9 28 -11 46 -4 54 6 8 5 20 -4 37 -7 14
-11 37 -8 52 3 15 1 41 -5 58 -7 18 -7 30 -1 30 16 0 10 39 -8 49 -14 8 -18
26 -21 93 -2 46 -10 97 -18 115 -8 17 -14 38 -14 46 0 8 -11 25 -23 38 -13 13
-27 39 -30 57 -4 19 -15 45 -26 58 -11 14 -17 33 -14 44 3 11 -1 27 -8 36 -14
17 -13 62 2 132 7 34 6 49 -8 75 -10 17 -25 32 -33 32 -11 0 -16 17 -20 70 -5
76 -15 99 -36 91 -25 -10 -17 48 11 72 14 12 25 26 25 31 0 17 87 24 142 11
129 -28 288 -70 326 -86 18 -8 44 -14 57 -14 14 0 30 -9 37 -20 7 -11 18 -20
25 -20 7 0 13 -8 13 -19 0 -14 -13 -22 -52 -33 -55 -15 -75 -41 -40 -52 10 -4
48 3 83 14 35 11 82 20 103 20 22 0 77 7 124 16 92 17 112 14 112 -14 0 -30
24 -46 49 -32 22 11 61 -1 61 -20 0 -6 9 -10 19 -10 11 0 32 -11 47 -25 15
-14 33 -25 39 -25 7 0 27 -23 45 -50 30 -46 35 -50 61 -45 18 4 29 2 29 -4 0
-6 9 -11 20 -11 16 0 20 -7 20 -30 0 -28 2 -30 21 -20 15 9 28 9 49 0 20 -8
34 -9 48 -1 29 16 39 14 45 -9 7 -28 32 -25 45 5 16 35 16 35 -18 35 -23 0
-30 4 -30 20 0 11 -7 20 -15 20 -9 0 -14 8 -12 22 1 15 -5 26 -20 33 -16 7
-21 15 -17 29 7 21 -10 36 -43 36 -25 0 -50 37 -36 51 10 10 33 0 83 -33 14
-9 39 -20 55 -24 30 -7 106 -46 135 -69 23 -19 149 -26 174 -10 12 7 50 15 86
18 61 5 63 4 42 -10 -12 -9 -22 -21 -22 -28 0 -7 -10 -20 -22 -29 -22 -16 -22
-16 22 -14 52 3 63 -14 30 -52 -15 -17 -17 -26 -9 -37 15 -17 36 -17 47 2 7
14 11 13 27 -5 21 -23 46 -26 75 -8 15 10 22 9 39 -6 25 -23 41 -13 41 24 0
16 4 31 9 34 11 7 68 -20 104 -51 16 -12 37 -23 48 -23 11 0 22 -8 26 -17 8
-25 74 -93 89 -93 7 0 29 -15 48 -34 22 -20 50 -36 74 -39 20 -4 44 -15 52
-24 22 -27 76 -63 94 -63 8 0 20 -9 26 -20 6 -11 22 -23 35 -26 14 -3 25 -10
25 -14 0 -4 13 -24 30 -45 25 -32 29 -43 24 -76 -4 -26 -3 -39 5 -39 6 0 11 8
11 18 0 13 12 22 39 31 43 12 52 26 56 89 2 24 11 52 20 62 9 10 20 44 24 74
4 31 13 62 18 67 17 17 47 6 53 -20 7 -31 23 -37 43 -16 9 8 25 15 36 15 12 0
21 6 21 13 0 8 4 7 10 -3 8 -12 10 -9 10 12 0 36 10 58 25 58 8 0 17 9 20 20
3 11 11 20 16 20 5 0 43 34 86 75 42 41 80 75 85 75 9 0 80 45 111 70 17 14
47 61 47 75 0 22 -50 -12 -125 -84 -48 -47 -92 -62 -151 -54 -40 5 -44 4 -44
-15 0 -20 -16 -39 -26 -30 -2 3 3 22 12 44 11 26 13 39 5 42 -6 2 -11 10 -11
17 0 19 -71 85 -92 85 -9 0 -20 5 -23 11 -4 5 -17 14 -28 20 -26 11 -47 23
-104 61 -23 15 -54 28 -70 28 -32 0 -52 13 -77 50 -20 31 -20 37 2 43 13 4 14
5 1 6 -20 1 -98 40 -81 41 24 0 12 19 -18 25 -16 4 -28 12 -27 18 4 20 -53 20
-69 0 -12 -17 -13 -16 -14 10 0 24 -8 32 -62 58 -35 17 -83 41 -108 54 -25 13
-54 24 -66 25 -14 0 -26 12 -38 41 -16 35 -21 40 -42 35 -13 -4 -24 -2 -24 3
0 11 -43 27 -92 36 -38 6 -54 25 -36 43 17 17 -29 34 -75 28 -23 -3 -36 -3
-29 0 19 9 14 26 -7 19 -13 -4 -21 1 -26 17 -4 13 -7 26 -6 29 2 19 -101 69
-142 69 -15 0 -14 3 4 21 20 20 20 21 2 34 -10 8 -31 15 -48 15 -16 0 -43 7
-59 15 -15 8 -36 16 -45 16 -9 1 -5 5 9 9 54 15 70 23 70 31 0 8 -38 14 -68
10 -7 -1 -22 5 -34 14 -13 8 -32 15 -44 15 -32 0 -25 26 8 29 57 3 68 5 68 12
0 6 -117 28 -155 28 -11 1 -50 4 -87 7 -60 6 -66 8 -58 24 11 21 71 35 80 20
9 -14 100 -25 100 -12 0 14 101 37 109 25 9 -15 98 -26 106 -14 6 11 -2 13
-90 32 -72 14 -222 20 -252 8 -30 -11 -59 -4 -67 17 -4 9 3 18 18 24 13 4 26
16 30 25 3 9 10 13 16 10 5 -3 10 3 10 14 0 16 -4 18 -27 13 -16 -4 -48 -5
-73 -1 -44 6 -44 6 -8 7 20 1 40 7 43 12 4 6 -22 10 -70 10 -92 0 -138 17
-156 59 -8 17 -17 31 -21 31 -5 0 -8 9 -8 20 0 11 -4 29 -10 40 -5 11 -15 29
-20 40 -5 11 -10 27 -10 35 0 8 -4 15 -10 15 -5 0 -10 11 -10 24 0 14 -4 28
-10 31 -5 3 -10 15 -10 26 0 10 -4 19 -10 19 -5 0 -10 11 -10 25 0 14 -4 25
-8 25 -4 0 -14 17 -21 38 -14 41 -28 77 -42 104 -5 10 -9 25 -9 33 0 8 -4 15
-10 15 -5 0 -10 8 -10 18 0 10 -4 22 -8 27 -4 6 -14 28 -21 50 -7 22 -16 49
-21 60 -4 11 -14 35 -22 52 -7 18 -19 35 -26 38 -12 4 -13 -58 -10 -383 2
-319 1 -392 -11 -405 -11 -14 -32 -17 -101 -17 -82 0 -89 2 -104 25 -14 22
-16 154 -16 1403 0 1087 3 1382 13 1390 11 10 76 15 155 13 60 -2 59 6 61
-714 0 -471 -2 -653 -11 -666 -9 -15 -7 -23 8 -39 25 -27 64 -99 64 -118 0 -8
5 -14 10 -14 6 0 10 -11 10 -24 0 -14 5 -28 10 -31 6 -3 10 -15 10 -26 0 -10
5 -19 10 -19 6 0 10 -7 10 -15 0 -8 4 -23 9 -33 5 -9 13 -28 19 -42 5 -14 20
-47 32 -75 12 -27 27 -61 32 -75 6 -14 14 -33 19 -42 5 -10 9 -25 9 -33 0 -8
5 -15 10 -15 6 0 10 -11 10 -25 0 -14 5 -25 10 -25 6 0 10 -9 10 -19 0 -11 5
-23 10 -26 6 -3 10 -17 10 -31 0 -13 5 -24 10 -24 6 0 10 -6 10 -14 0 -7 7
-27 15 -42 13 -26 15 9 15 362 l0 391 -42 13 c-68 21 -165 102 -189 158 -8 17
-17 32 -21 32 -5 0 -8 11 -8 25 0 14 -4 25 -10 25 -5 0 -10 13 -10 29 0 17 -4
33 -10 36 -18 11 -11 45 14 68 42 39 168 61 194 35 7 -7 12 -25 12 -40 0 -15
5 -28 10 -28 6 0 10 -7 10 -15 0 -22 33 -72 65 -97 51 -40 145 -62 160 -38 3
6 14 10 24 10 10 0 33 16 51 36 31 35 33 40 32 113 0 44 -5 77 -11 79 -6 2
-11 9 -11 15 0 16 -73 93 -140 147 -30 25 -57 47 -60 50 -3 3 -32 25 -65 49
-117 87 -235 228 -235 282 0 10 -4 21 -10 24 -6 3 -10 48 -10 100 0 52 4 97
10 100 5 3 10 17 10 31 0 13 5 24 10 24 6 0 10 6 10 14 0 8 20 36 44 63 40 44
80 70 159 102 35 14 243 15 252 1 3 -5 17 -10 31 -10 13 0 24 -4 24 -10 0 -5
7 -10 16 -10 43 0 184 -181 184 -235 0 -8 5 -15 10 -15 17 0 11 -39 -10 -60
-11 -11 -29 -20 -40 -20 -11 0 -20 -4 -20 -9 0 -12 -90 -20 -117 -10 -13 5
-26 17 -29 26 -19 58 -70 133 -91 133 -7 0 -13 5 -13 10 0 6 -25 10 -55 10
-68 0 -123 -31 -132 -73 -3 -15 -10 -30 -14 -33 -12 -7 -11 -50 0 -72 5 -9 16
-32 23 -49 7 -18 16 -33 20 -33 5 0 8 -5 8 -11 0 -12 24 -36 80 -77 19 -15 47
-39 63 -54 15 -16 32 -28 37 -28 6 0 10 -4 10 -10 0 -5 6 -10 13 -10 7 0 19
-9 27 -20 8 -11 18 -20 22 -20 21 0 160 -136 186 -181 44 -79 64 -156 59 -232
-6 -87 -16 -137 -28 -137 -5 0 -9 -7 -9 -15 0 -53 -157 -185 -220 -185 -11 0
-23 -8 -28 -17 -7 -15 -6 -163 3 -418 3 -89 2 -86 38 -84 17 2 46 1 62 0 30
-2 29 -3 -10 -15 -22 -7 -49 -9 -61 -5 -19 7 -22 3 -27 -39 -6 -52 1 -279 8
-301 4 -10 17 -12 49 -8 24 4 46 3 50 0 4 -4 15 -8 26 -10 17 -2 20 3 20 30 0
18 4 37 9 42 16 19 21 113 6 129 -12 12 -12 16 0 32 8 11 15 15 15 9 1 -22 28
46 34 84 3 23 9 59 12 81 3 22 10 43 15 46 5 3 9 29 9 59 0 30 4 57 10 60 6 3
10 24 10 46 0 21 4 39 9 39 5 0 12 24 15 53 12 117 19 152 35 181 l18 31 101
3 102 3 0 584 0 585 -22 1 c-13 1 -54 3 -91 4 -112 5 -136 12 -144 43 -12 43
-6 153 9 168 10 11 81 14 329 18 199 2 323 7 336 14 16 9 27 6 56 -14 37 -25
40 -33 37 -90 -1 -30 10 -46 37 -50 16 -3 24 23 18 60 -4 22 1 38 14 54 18 20
29 23 107 24 75 1 88 -1 98 -18 16 -28 24 -55 25 -91 1 -26 5 -33 21 -33 27 0
27 -40 1 -47 -17 -4 -20 -18 -26 -116 -4 -62 -4 -283 -1 -492 3 -209 6 -422 6
-473 0 -60 4 -91 10 -87 6 3 10 -1 10 -10 0 -9 5 -13 11 -9 7 4 9 0 5 -14 -4
-11 -2 -23 4 -27 6 -4 10 9 10 34 0 22 5 43 10 46 6 3 10 24 10 46 0 21 4 39
9 39 8 0 13 24 27 143 3 26 10 47 15 47 5 0 9 19 9 43 0 24 4 47 9 53 9 8 16
53 26 153 2 24 9 49 14 54 6 6 11 33 11 59 0 26 4 48 9 48 5 0 11 21 14 48 3
26 11 72 16 102 6 30 14 76 17 103 4 26 11 50 15 53 5 3 9 31 9 63 0 31 4 61
9 67 5 5 11 27 14 49 3 22 9 55 13 72 l6 33 -40 -14 c-22 -8 -61 -17 -86 -20
-146 -18 -136 -19 -136 2 0 11 8 23 18 27 38 16 129 34 169 35 32 0 51 7 75
28 39 33 145 67 181 58 15 -3 27 -1 29 5 2 6 15 9 28 6 l25 -4 -22 -8 c-13 -4
-23 -11 -23 -15 0 -5 -10 -11 -22 -13 -13 -2 -4 -5 20 -6 82 -2 132 -50 132
-126 0 -19 5 -35 10 -35 6 0 10 -20 10 -44 0 -25 5 -48 10 -51 6 -3 10 -30 10
-60 0 -30 5 -57 10 -60 6 -3 10 -26 10 -50 0 -24 5 -47 10 -50 6 -3 10 -26 10
-51 0 -24 4 -44 9 -44 5 0 12 -24 15 -52 12 -111 18 -148 27 -148 5 0 9 -22 9
-50 0 -27 5 -50 10 -50 6 0 10 -20 10 -45 0 -25 4 -45 9 -45 8 0 13 -25 27
-157 3 -29 9 -53 14 -53 4 0 10 -19 14 -42 3 -24 10 -70 16 -103 6 -33 11 -73
12 -90 0 -26 6 -33 51 -54 29 -14 71 -44 94 -68 40 -43 83 -118 83 -147 0 -8
4 -18 10 -21 6 -4 10 -57 10 -125 0 -68 4 -121 10 -125 6 -4 10 -55 10 -121 0
-63 4 -113 8 -110 4 3 7 47 5 98 -3 110 2 135 23 117 11 -9 14 -8 14 5 0 10 4
15 9 12 5 -3 11 40 15 97 8 137 16 197 27 197 5 0 9 9 9 20 0 36 31 80 110
157 30 29 62 53 73 53 28 0 11 17 -24 24 -28 5 -31 9 -24 33 8 35 23 45 48 31
10 -5 21 -7 25 -4 3 3 0 6 -6 6 -7 0 -12 5 -12 11 0 21 28 -10 33 -37 3 -15
-1 -28 -11 -33 -21 -12 -2 -19 33 -11 24 6 27 8 13 14 -12 6 -18 19 -18 43 0
20 -4 32 -10 28 -6 -4 -10 8 -10 29 0 19 -4 38 -10 41 -5 3 -10 15 -10 26 0
10 -4 19 -10 19 -5 0 -10 7 -10 15 0 8 -4 24 -10 35 -6 11 -15 29 -20 40 -5
11 -10 26 -10 34 0 8 -10 34 -21 58 -12 23 -25 52 -29 63 -5 11 -17 41 -29 67
-12 26 -21 55 -21 63 0 8 -4 15 -10 15 -5 0 -10 9 -10 20 0 11 -4 20 -10 20
-5 0 -10 9 -10 20 0 11 -4 28 -9 38 -5 9 -16 33 -25 52 -14 33 -16 8 -16 -354
l0 -389 -27 -23 c-24 -20 -39 -24 -98 -24 -116 1 -105 -75 -105 716 0 417 4
695 10 704 7 12 30 15 98 15 117 -1 119 -2 191 -187 5 -13 19 -45 31 -73 12
-27 26 -60 31 -72 5 -13 14 -34 19 -48 6 -14 14 -35 19 -47 5 -13 19 -45 31
-73 23 -51 37 -84 50 -120 9 -23 48 -112 61 -137 5 -10 9 -25 9 -33 0 -8 7
-15 15 -15 13 0 15 43 14 332 -1 208 -5 341 -12 355 -10 23 -8 31 23 93 18 37
182 33 203 -4 16 -30 23 -1351 7 -1361 -7 -4 9 -18 39 -32 28 -14 51 -29 51
-34 0 -5 10 -9 22 -9 20 0 20 1 5 18 -10 10 -17 24 -17 31 0 6 -7 26 -16 43
-18 34 -25 76 -15 83 4 2 20 -16 36 -40 17 -24 38 -46 47 -48 10 -3 22 -17 28
-32 6 -15 22 -41 35 -57 14 -16 28 -42 32 -56 3 -15 18 -43 33 -62 52 -68 57
-155 8 -148 -15 2 -24 11 -26 26 -2 12 -10 35 -18 50 -12 24 -14 -16 -14 -333
1 -383 2 -396 48 -392 16 1 20 6 16 19 -4 15 1 17 40 15 41 -2 48 -6 61 -34
23 -48 29 -91 15 -108 -8 -9 -8 -15 -2 -15 12 0 25 -32 28 -70 2 -14 8 -50 14
-80 6 -30 15 -86 20 -125 18 -137 29 -211 40 -265 29 -137 23 -225 -21 -275
-9 -11 -25 -34 -36 -52 -25 -43 -159 -230 -197 -274 -17 -20 -40 -47 -50 -60
-29 -36 -137 -159 -171 -195 -16 -17 -50 -54 -75 -83 -25 -28 -61 -69 -82 -91
-20 -21 -49 -56 -64 -77 -16 -21 -31 -40 -34 -43 -3 -3 -23 -27 -44 -54 -22
-26 -50 -59 -63 -72 -12 -13 -23 -27 -23 -31 -1 -26 -121 -109 -184 -127 -29
-9 -64 -24 -78 -35 -16 -13 -29 -16 -38 -11 -9 6 -24 2 -41 -11 -15 -10 -31
-19 -36 -19 -4 0 -30 -16 -57 -35 -27 -19 -54 -35 -60 -35 -19 0 -86 -68 -86
-88 0 -16 10 -20 63 -25 111 -9 164 -26 194 -60 57 -63 88 -89 137 -115 46
-24 61 -27 151 -26 87 1 108 4 156 27 31 15 68 38 83 52 21 20 38 25 76 25 44
0 51 -3 67 -30 9 -17 25 -32 34 -35 9 -3 42 -31 73 -62 50 -50 121 -91 135
-78 2 3 -1 5 -8 5 -7 0 -10 4 -6 10 3 5 -6 17 -20 26 -14 9 -25 21 -25 27 0 6
-12 23 -27 39 -14 15 -32 43 -38 62 -12 33 -10 37 18 66 17 17 26 34 21 39
-11 9 -76 28 -126 36 -74 12 -35 38 78 54 37 6 77 19 94 31 30 21 32 21 51 4
18 -17 23 -17 92 -1 39 9 89 19 110 23 20 3 37 10 37 15 0 12 67 12 75 0 13
-21 103 21 174 81 24 21 48 38 52 38 5 0 9 9 9 21 0 12 10 42 23 68 30 58 27
121 -6 121 -20 0 -20 -1 -2 -14 23 -17 14 -46 -15 -46 -12 0 -20 -6 -18 -12 6
-35 -45 -103 -77 -103 -5 0 -16 -6 -23 -12 -19 -18 -49 -16 -57 4 -13 32 -12
87 1 101 14 13 13 26 -8 147 -5 33 -14 110 -18 170 -4 61 -10 117 -13 125 -11
29 -17 466 -6 503 7 25 7 43 -1 56 -12 23 15 141 36 153 7 4 20 30 30 58 11
31 24 50 33 50 9 0 21 10 27 23 6 12 26 49 44 82 74 135 110 207 110 221 0 7
5 14 10 14 6 0 10 7 10 15 0 8 4 15 9 15 5 0 11 19 14 43 3 23 11 74 18 114
l13 72 39 7 c27 4 35 9 26 15 -7 4 -11 9 -9 11 39 25 68 35 79 28 8 -4 32 -6
54 -3 34 4 38 2 26 -9 -8 -8 -22 -17 -32 -21 -29 -11 -9 -27 26 -21 45 7 106
24 147 40 19 7 52 16 73 20 20 3 40 10 43 15 3 5 14 9 25 9 15 0 19 -6 17 -22
-2 -17 3 -24 20 -26 17 -3 22 2 23 20 0 13 3 17 6 11 2 -7 10 -13 16 -13 7 0
12 -15 12 -37 0 -32 4 -39 23 -41 12 -2 22 1 22 7 0 6 4 11 8 11 5 0 9 -7 9
-15 0 -8 -4 -15 -9 -15 -4 0 -8 -7 -8 -15 0 -8 -4 -15 -9 -15 -6 0 -16 -12
-23 -27 -20 -40 -42 -43 -33 -4 5 24 3 31 -9 31 -9 0 -13 -6 -10 -15 6 -14
-16 -24 -62 -27 -19 -2 -20 -6 -13 -31 10 -35 -26 -198 -46 -210 -7 -4 -16
-26 -20 -50 -4 -23 -16 -64 -26 -92 -11 -27 -19 -64 -19 -80 0 -17 -17 -63
-39 -104 -21 -40 -36 -82 -34 -92 3 -10 -2 -28 -11 -41 -9 -12 -16 -31 -16
-42 0 -10 -10 -28 -22 -40 -20 -18 -48 -67 -48 -81 0 -3 9 -5 20 -5 12 0 20 7
20 16 0 14 3 14 15 4 8 -7 15 -8 15 -3 0 4 22 33 50 63 51 57 61 84 35 94 -16
6 -21 41 -6 50 5 4 21 7 35 8 23 2 26 6 21 29 -4 17 -1 32 9 42 8 8 21 33 28
56 7 23 16 41 20 41 5 0 8 14 8 30 0 17 9 39 20 50 12 12 20 33 20 55 0 19 4
35 9 35 5 0 14 15 22 33 7 17 32 53 56 79 24 26 46 61 49 77 4 17 15 38 25 47
11 9 19 27 19 38 0 12 9 27 19 33 11 7 21 25 23 40 2 22 11 31 44 43 62 22 83
41 91 80 6 31 5 33 -8 20 -8 -8 -18 -23 -22 -32 -7 -19 -32 -24 -42 -8 -6 9
10 44 33 68 20 23 15 52 -10 53 -22 1 -22 1 2 8 20 5 26 14 28 44 2 20 7 37
12 37 5 0 30 21 56 46 27 25 50 41 52 35 7 -20 21 -12 47 26 14 21 25 32 25
25 0 -6 5 -12 10 -12 7 0 10 468 10 1384 l0 1385 -22 4 -23 4 23 2 22 1 0 201
0 201 -31 -4 c-27 -4 -33 0 -56 39 -21 36 -25 53 -21 93 l5 50 -4046 -1
c-2387 0 -4055 -4 -4068 -9z m7474 -116 c-3 -3 -12 -4 -19 -1 -8 3 -5 6 6 6
11 1 17 -2 13 -5z m-64 -21 c-7 -2 -19 -2 -25 0 -7 3 -2 5 12 5 14 0 19 -2 13
-5z m107 -19 c6 -14 10 -27 10 -29 0 -7 -64 7 -70 15 -3 4 -12 10 -20 14 -8 3
-3 4 12 3 15 -2 27 -1 26 2 -3 31 30 28 42 -5z m77 -40 c-3 -3 -12 -4 -19 -1
-8 3 -5 6 6 6 11 1 17 -2 13 -5z m-1372 -196 c38 2 70 -26 133 -116 27 -37 45
-92 31 -92 -5 0 -9 5 -9 11 0 6 -9 9 -20 6 -10 -3 -24 1 -31 9 -6 8 -15 11
-20 8 -15 -9 -47 15 -70 53 -13 21 -25 40 -28 43 -4 3 -17 25 -30 49 -21 40
-21 43 -5 36 11 -5 33 -8 49 -7z m1520 -99 c10 -30 2 -32 -12 -3 -6 13 -7 24
-3 24 5 0 12 -9 15 -21z m-2177 -86 c4 -27 -10 -30 -32 -7 -23 22 -20 36 7 32
14 -2 23 -11 25 -25z m-407 -84 c21 -17 39 -37 39 -45 0 -8 6 -17 13 -20 19
-7 17 -34 -2 -34 -9 0 -22 10 -30 21 -7 13 -16 18 -20 12 -4 -7 -14 -7 -31 0
-20 8 -22 11 -7 14 21 5 23 41 2 49 -14 6 -22 34 -9 34 3 0 24 -14 45 -31z
m2859 -9 c0 -5 -12 -10 -27 -10 -22 0 -25 2 -13 10 20 13 40 13 40 0z m-1530
-41 c0 -5 -7 -6 -15 -3 -8 4 -15 13 -15 21 0 13 3 13 15 3 8 -7 15 -16 15 -21z
m-883 -31 c-3 -8 -6 -5 -6 6 -1 11 2 17 5 13 3 -3 4 -12 1 -19z m20 -40 c-3
-7 -5 -2 -5 12 0 14 2 19 5 13 2 -7 2 -19 0 -25z m-278 -84 c39 -41 78 -88 86
-102 9 -15 24 -40 35 -57 10 -16 19 -41 19 -54 1 -20 -1 -21 -14 -11 -12 10
-15 10 -15 -3 0 -9 -5 -19 -12 -23 -7 -4 -8 -3 -4 4 3 6 -3 16 -15 23 -27 14
-66 58 -75 82 -3 11 -14 28 -24 39 -10 11 -22 24 -26 29 -5 6 -18 16 -28 23
-25 17 -37 126 -14 126 9 0 47 -34 87 -76z m321 51 c0 -8 11 -25 25 -37 37
-32 32 -78 -6 -57 -11 5 -19 19 -19 30 0 12 -10 29 -22 38 -12 10 -18 23 -14
29 10 17 36 15 36 -3z m1117 -196 c15 -5 30 -13 33 -17 3 -4 25 -20 50 -36 25
-16 58 -42 75 -58 25 -24 28 -30 15 -38 -23 -15 -72 -2 -97 26 -12 13 -27 24
-33 24 -5 0 -10 4 -10 8 0 5 -18 18 -39 30 -41 23 -51 38 -43 60 5 15 13 15
49 1z m-904 -200 c14 -16 16 -24 6 -35 -6 -8 -15 -14 -20 -14 -13 0 -31 40
-25 56 7 19 18 18 39 -7z m-4825 -21 c23 -7 42 -16 42 -20 0 -4 6 -8 14 -8 20
0 126 -106 126 -125 0 -8 5 -15 10 -15 6 0 10 -9 10 -19 0 -11 5 -23 10 -26 6
-3 10 -19 10 -36 0 -16 5 -29 10 -29 6 0 10 -35 10 -84 0 -78 -2 -85 -25 -100
-28 -19 -112 -21 -149 -5 -27 13 -56 77 -56 126 0 18 -4 35 -10 38 -5 3 -10
13 -10 22 0 24 -67 81 -98 85 -60 7 -121 -8 -147 -36 -14 -15 -25 -36 -25 -46
0 -10 -4 -22 -10 -25 -6 -4 -10 -152 -10 -410 0 -258 4 -406 10 -410 6 -3 10
-16 10 -28 0 -27 41 -77 63 -77 9 0 19 -4 22 -10 3 -5 24 -10 45 -10 21 0 42
5 45 10 3 6 14 10 23 10 21 0 72 49 72 70 0 9 4 20 9 25 5 6 11 28 14 50 12
89 25 138 38 146 8 5 49 9 91 9 74 0 77 -1 99 -31 19 -27 20 -35 10 -69 -6
-20 -11 -60 -11 -88 0 -28 -4 -54 -10 -57 -5 -3 -10 -17 -10 -30 0 -13 -4 -27
-10 -30 -5 -3 -10 -15 -10 -26 0 -10 -4 -19 -10 -19 -5 0 -10 -6 -10 -14 0
-18 -89 -106 -107 -106 -7 0 -13 -4 -13 -10 0 -5 -9 -10 -19 -10 -31 0 -31
-25 -1 -38 35 -16 82 -61 106 -101 10 -17 22 -31 26 -31 4 0 8 -8 8 -18 0 -10
4 -22 9 -28 30 -32 30 -364 0 -364 -5 0 -9 -9 -9 -20 0 -11 -4 -20 -10 -20 -5
0 -10 -8 -10 -18 0 -19 -48 -74 -92 -107 -22 -15 -28 -28 -28 -57 0 -21 5 -38
10 -38 6 0 10 -16 10 -35 0 -19 5 -35 10 -35 6 0 10 -11 10 -24 0 -14 5 -28
10 -31 6 -3 10 -17 10 -30 0 -13 5 -27 10 -30 6 -3 10 -17 10 -31 0 -13 5 -34
12 -47 24 -48 28 -57 28 -77 0 -20 4 -29 28 -77 7 -13 12 -34 12 -47 0 -14 5
-28 10 -31 14 -9 13 -58 -2 -73 -8 -8 -46 -12 -104 -12 -91 0 -93 1 -113 29
-12 16 -21 35 -21 42 0 15 -19 77 -31 101 -5 10 -9 27 -9 37 0 11 -4 23 -10
26 -5 3 -10 17 -10 30 0 13 -4 27 -10 30 -5 3 -10 19 -10 35 0 16 -4 32 -10
35 -5 3 -10 17 -10 30 0 13 -4 27 -10 30 -5 3 -10 17 -10 30 0 13 -4 27 -10
30 -5 3 -10 16 -10 28 -1 39 -34 67 -80 67 -71 0 -70 3 -70 -287 -1 -199 -4
-262 -14 -275 -11 -15 -29 -18 -95 -18 -133 0 -120 -73 -121 714 l0 670 22 23
c19 20 31 23 95 23 l74 0 -48 48 c-47 45 -92 123 -109 187 -10 38 -10 888 1
938 4 20 11 37 16 37 5 0 9 8 9 18 1 21 55 92 95 124 28 22 43 30 108 58 49
21 204 20 285 -2z m5777 1 c5 -5 22 -9 38 -9 70 0 207 -159 207 -240 0 -17 5
-30 10 -30 7 0 10 -151 10 -434 0 -279 -4 -437 -10 -441 -5 -3 -10 -17 -10
-31 0 -13 -4 -32 -9 -42 -5 -9 -15 -30 -22 -47 -17 -36 -100 -125 -117 -125
-7 0 -12 -4 -12 -10 0 -5 -9 -10 -19 -10 -11 0 -23 -4 -26 -10 -3 -5 -19 -10
-36 -10 -16 0 -29 -4 -29 -10 0 -6 -36 -10 -87 -10 -80 0 -132 9 -175 31 -10
5 -24 9 -33 9 -18 0 -125 100 -125 117 0 7 -4 13 -9 13 -5 0 -11 8 -15 18 -3
9 -11 31 -17 47 -24 67 -32 128 -36 279 -3 121 -7 162 -18 173 -8 8 -15 19
-15 24 0 13 18 11 23 -3 3 -7 6 6 6 30 1 23 -3 42 -9 42 -13 0 -13 33 -1 46 6
5 12 70 15 144 6 166 15 250 27 250 5 0 9 9 9 20 0 48 112 190 150 190 6 0 18
4 28 9 46 23 71 31 112 34 64 5 183 -4 195 -14z m-6450 -21 c20 -13 38 -33 41
-45 4 -13 10 -23 15 -23 5 0 9 -32 9 -71 0 -54 -5 -80 -21 -108 -28 -51 -49
-62 -104 -54 -35 4 -45 10 -45 24 0 12 7 19 19 19 11 0 26 7 35 15 8 8 19 15
24 15 11 0 22 24 22 50 0 10 7 30 15 46 15 29 11 49 -5 24 -8 -12 -10 -10 -10
7 0 16 -8 25 -25 29 -14 3 -22 10 -19 15 3 5 -9 9 -25 9 -17 0 -31 -4 -31 -10
0 -5 -9 -10 -20 -10 -11 0 -29 -9 -40 -20 -17 -17 -24 -18 -41 -9 -19 10 -20
9 -9 -11 10 -18 8 -25 -7 -40 -10 -11 -34 -40 -53 -65 -19 -26 -47 -53 -62
-61 -16 -8 -28 -19 -28 -24 0 -6 -31 -10 -71 -10 -40 0 -68 4 -64 9 3 5 -5 11
-17 13 -31 4 -66 71 -67 127 -1 67 30 123 84 150 25 12 48 20 53 17 4 -2 9
-20 10 -39 2 -30 -1 -36 -25 -42 -35 -8 -52 -32 -53 -71 0 -24 -7 -34 -32 -47
-29 -14 -30 -16 -10 -16 12 -1 22 4 22 9 0 6 5 10 10 10 14 0 50 -37 43 -44
-12 -12 65 -6 88 7 36 19 89 70 89 84 0 7 5 13 10 13 6 0 10 5 10 10 0 20 109
120 130 120 12 0 18 5 15 10 -4 6 15 10 50 10 40 0 65 -6 90 -22z m1499 2 c5
-5 20 -10 33 -10 13 0 23 -4 23 -10 0 -5 7 -10 15 -10 46 0 165 -144 165 -200
0 -11 5 -22 10 -25 6 -4 10 -62 10 -140 0 -78 -4 -136 -10 -140 -5 -3 -10 -19
-10 -36 0 -16 -3 -29 -8 -29 -4 0 -14 -15 -21 -32 -8 -18 -41 -58 -73 -89 -56
-55 -69 -81 -48 -94 6 -3 10 -19 10 -36 0 -16 5 -29 10 -29 6 0 10 -13 10 -29
0 -17 5 -33 10 -36 6 -3 10 -17 10 -30 0 -13 5 -27 10 -30 6 -3 10 -17 10 -31
0 -13 5 -24 10 -24 6 0 10 -13 10 -29 0 -17 5 -33 10 -36 6 -3 10 -17 10 -30
0 -13 5 -27 10 -30 6 -3 10 -17 10 -30 0 -13 5 -27 10 -30 6 -3 10 -17 10 -30
0 -13 5 -27 10 -30 14 -9 12 -89 -2 -103 -7 -7 -42 -12 -87 -12 -74 0 -75 0
-51 -17 44 -30 110 -126 110 -158 0 -8 5 -15 10 -15 6 0 10 -20 10 -45 0 -25
5 -45 10 -45 7 0 10 -143 10 -409 0 -263 -4 -412 -10 -416 -5 -3 -10 -19 -10
-36 0 -16 -4 -37 -9 -47 -5 -9 -15 -30 -22 -47 -16 -34 -33 -57 -70 -94 -30
-29 -103 -71 -125 -71 -8 0 -14 -4 -14 -10 0 -14 -232 -13 -267 1 -92 37 -163
84 -163 107 0 5 -6 12 -12 15 -7 3 -21 22 -32 43 -10 22 -22 47 -27 56 -5 10
-9 31 -9 47 0 17 -4 33 -10 36 -6 4 -10 153 -10 416 0 266 3 409 10 409 6 0
10 20 10 44 0 25 5 48 10 51 6 3 10 15 10 26 0 10 5 19 10 19 6 0 10 8 10 18
0 9 24 41 54 70 l54 52 -49 0 c-27 0 -49 5 -49 10 0 6 -7 10 -15 10 -13 0 -15
84 -15 694 0 732 -2 708 45 718 40 9 439 -2 449 -12z m2625 -119 c17 -11 7
-41 -13 -41 -19 0 -29 17 -22 35 6 17 15 18 35 6z m99 -115 c10 -10 11 -16 3
-20 -6 -4 -11 0 -11 8 0 9 -4 16 -10 16 -5 0 -10 -4 -10 -10 0 -15 -39 -12
-56 4 -12 13 -12 15 4 19 24 7 65 -2 80 -17z m-114 -21 c-4 -8 -15 -15 -25
-15 -12 0 -16 5 -13 15 4 8 15 15 25 15 12 0 16 -5 13 -15z m-4159 -65 c4 -6
-5 -10 -20 -10 -15 0 -24 4 -20 10 3 6 12 10 20 10 8 0 17 -4 20 -10z m-454
-40 c5 0 9 -27 9 -60 0 -57 1 -60 25 -60 14 0 25 -6 25 -12 0 -10 2 -10 8 0 7
9 64 12 253 10 l244 -3 3 -32 c3 -29 0 -33 -20 -34 -13 0 -124 0 -248 -1 -124
0 -239 -3 -257 -5 -32 -5 -32 -6 -35 -67 l-3 -61 -41 -3 c-31 -2 -41 1 -41 13
0 8 5 15 10 15 5 0 6 10 2 23 -4 12 -8 68 -9 124 -1 77 2 103 12 103 15 0 16
16 0 26 -15 9 21 36 40 29 8 -3 18 -5 23 -5z m55 -375 c4 -10 13 -13 27 -9 11
3 68 6 126 6 58 0 163 -1 234 -1 l127 -1 0 -39 c0 -36 -3 -40 -32 -46 -36 -8
-44 -12 -105 -43 -23 -12 -51 -22 -62 -22 -12 0 -21 -4 -21 -10 0 -5 -11 -10
-25 -10 -14 0 -25 -4 -25 -9 0 -10 -41 -27 -87 -36 -26 -5 -33 -11 -33 -31 0
-18 -5 -24 -22 -24 -17 0 -19 -3 -10 -12 9 -9 18 -9 37 0 15 7 101 15 192 19
l166 6 -6 -23 c-3 -13 -1 -30 5 -37 8 -10 8 -17 0 -25 -7 -7 -12 -8 -12 -2 0
6 -33 11 -77 12 -43 1 -89 2 -103 3 -74 4 -134 -2 -120 -11 10 -7 -18 -10 -87
-10 -62 0 -103 4 -103 10 0 6 -7 10 -15 10 -8 0 -15 -6 -15 -12 0 -9 -4 -8
-10 2 -9 13 -10 13 -10 0 0 -12 -2 -12 -8 -2 -5 7 -15 10 -24 7 -20 -8 -47 23
-29 34 6 4 11 12 10 17 -1 5 1 17 5 27 9 19 47 24 43 5 -1 -6 7 -14 18 -16 17
-4 18 -2 5 13 -12 14 -12 18 1 26 8 5 20 9 27 9 6 0 12 5 12 10 0 6 11 10 25
10 14 0 34 8 45 18 22 21 104 47 119 37 7 -3 8 0 5 9 -4 11 0 16 15 16 18 0
61 31 61 45 0 3 -88 5 -195 5 -149 0 -195 3 -197 13 -4 35 -2 43 10 56 12 12
15 12 23 0 7 -11 9 -11 9 -1 0 10 8 12 30 7 19 -4 30 -3 30 4 0 17 20 13 26
-4z m514 -307 c0 -48 -10 -45 -17 6 -3 22 0 36 6 36 6 0 11 -18 11 -42z m-262
-45 c-10 -2 -26 -2 -35 0 -10 3 -2 5 17 5 19 0 27 -2 18 -5z m-316 -122 c2
-49 9 -95 15 -103 9 -10 35 -13 99 -11 48 2 88 4 90 6 2 1 4 36 5 77 2 84 11
105 40 89 14 -7 19 -6 21 3 1 7 4 -27 7 -77 l6 -90 114 0 114 0 -2 83 c-1 53
2 89 10 98 12 15 45 19 53 6 3 -5 6 -66 7 -136 l1 -127 -288 0 c-159 0 -305 0
-324 1 l-35 0 -2 65 c-1 36 2 65 7 65 6 0 10 9 10 20 0 11 -4 20 -10 20 -5 0
-10 18 -10 40 0 22 5 40 11 40 5 0 7 5 4 10 -4 6 6 10 23 10 l30 0 4 -89z
m576 -263 l-3 -33 -218 -1 c-222 -2 -254 -7 -228 -38 11 -13 33 -18 154 -32
26 -3 47 -10 47 -15 0 -5 10 -9 23 -10 21 0 21 -1 2 -9 -14 -6 3 -9 55 -11 41
-1 63 -4 48 -6 -55 -8 -27 -20 37 -16 45 3 65 1 65 -7 0 -6 5 -8 10 -5 6 3 10
-5 10 -19 0 -18 -4 -24 -15 -20 -8 4 -15 1 -15 -5 0 -6 -19 -11 -44 -11 -25 0
-47 -4 -50 -8 -3 -5 -37 -15 -76 -22 -39 -7 -73 -17 -76 -22 -3 -4 -23 -8 -44
-8 -21 0 -61 -5 -89 -12 -43 -10 -50 -15 -45 -30 4 -13 0 -18 -15 -18 -12 0
-21 -4 -21 -8 0 -5 111 -6 246 -4 l245 5 -3 -34 -3 -34 -245 -1 c-135 -1 -225
2 -200 6 l45 7 -42 1 c-23 1 -44 -2 -47 -7 -5 -8 -118 -5 -145 4 -10 4 -11 8
-2 19 9 10 9 15 1 18 -8 2 -9 16 -5 39 6 32 11 36 53 48 26 7 57 17 70 22 13
5 35 9 50 9 16 0 32 4 38 10 12 12 62 14 133 4 41 -5 52 -4 47 5 -5 8 -19 10
-37 6 -15 -4 -36 -2 -46 4 -15 9 -12 10 17 11 23 0 42 7 53 20 16 19 15 20
-23 26 -39 6 -54 27 -27 37 9 4 9 6 0 6 -6 1 -15 -3 -18 -9 -3 -5 -27 -10 -53
-10 -31 0 -42 3 -33 9 9 6 0 11 -30 14 -85 11 -119 19 -119 28 0 5 -18 9 -40
9 -42 0 -49 14 -20 37 13 11 13 12 -2 13 -20 0 -25 30 -5 30 9 0 9 2 -1 8 -7
5 -10 16 -6 25 6 15 36 17 326 17 l319 0 -3 -32z m6174 -365 c15 -36 31 -92
63 -223 15 -61 25 -135 30 -223 2 -33 8 -64 14 -71 11 -13 10 -106 -1 -106
-11 0 -40 112 -35 137 2 13 1 23 -3 23 -4 0 -10 15 -13 33 -5 35 -22 87 -42
127 -7 14 -16 48 -19 75 -8 57 -34 145 -47 160 -12 12 -11 62 1 86 16 29 35
23 52 -18z m-6272 -137 c0 -9 8 -12 25 -9 14 3 31 -1 40 -11 9 -9 14 -16 10
-16 -3 0 4 -10 15 -22 14 -16 19 -30 15 -46 -4 -15 -2 -21 5 -17 6 4 10 -6 9
-27 0 -27 -2 -30 -9 -13 -7 16 -9 11 -9 -21 -1 -43 -20 -94 -36 -94 -5 0 -21
-9 -35 -20 -23 -18 -42 -20 -252 -20 -146 0 -228 4 -228 10 0 6 -9 10 -21 10
-13 0 -18 4 -13 12 5 7 3 8 -5 4 -17 -11 -40 22 -41 57 0 16 -4 26 -10 22 -6
-4 -10 15 -10 49 0 31 3 56 8 56 4 0 8 12 9 26 2 35 50 76 81 69 12 -3 22 -1
22 5 0 6 76 10 215 10 175 0 215 -3 215 -14z m6868 -136 c-7 -17 -16 -30 -20
-30 -5 0 -8 -8 -8 -19 0 -10 -7 -24 -15 -31 -8 -7 -15 -18 -15 -25 0 -7 -13
-29 -29 -49 l-29 -36 -7 27 c-4 17 -2 29 4 31 6 2 11 11 11 20 -1 14 -4 13
-19 -5 -11 -13 -24 -23 -29 -23 -6 0 -12 -12 -14 -27 -4 -25 -5 -26 -13 -9 -6
13 -2 32 14 62 27 49 58 63 70 31 7 -19 10 -18 40 23 17 25 38 53 46 63 8 9
16 27 16 40 1 17 2 18 6 4 2 -9 -1 -31 -9 -47z m-465 -57 c-7 -2 -21 -2 -30 0
-10 3 -4 5 12 5 17 0 24 -2 18 -5z m1227 -73 c0 -11 -4 -20 -9 -20 -5 0 -13
-9 -16 -21 -6 -19 -8 -19 -19 -3 -9 11 -21 15 -35 11 -16 -4 -21 -1 -21 13 0
15 34 29 93 39 4 0 7 -8 7 -19z m-4780 -31 c0 -5 -4 -9 -10 -9 -5 0 -10 7 -10
16 0 8 5 12 10 9 6 -3 10 -10 10 -16z m4758 -69 c-10 -15 -13 -16 -29 -2 -25
22 -14 44 16 30 19 -9 22 -14 13 -28z m-75 15 c4 -8 2 -17 -4 -21 -12 -7 -41
15 -33 27 8 14 31 11 37 -6z m-7653 -18 l215 -2 3 -32 3 -33 -223 0 c-123 0
-229 -4 -236 -9 -25 -15 15 -41 63 -41 24 0 47 -4 50 -10 3 -5 17 -10 30 -10
13 0 26 -4 29 -9 3 -4 31 -11 63 -13 32 -3 95 -16 141 -28 65 -18 82 -27 82
-42 0 -11 -7 -18 -20 -18 -11 0 -20 -4 -20 -8 0 -7 -85 -29 -145 -38 -11 -1
-40 -8 -65 -14 -25 -7 -69 -14 -98 -17 -28 -3 -50 -9 -46 -14 3 -5 -7 -9 -23
-9 -43 0 -58 -13 -39 -33 14 -14 47 -16 237 -14 l220 2 -3 -30 c-3 -28 -6 -30
-58 -37 -30 -4 -171 -7 -312 -6 -214 0 -258 2 -258 14 0 8 -6 14 -12 14 -9 0
-8 4 2 10 13 8 13 10 1 10 -11 0 -9 4 5 14 18 14 18 15 2 21 -47 18 6 55 107
75 33 6 68 16 77 21 10 5 33 9 52 9 19 0 37 4 40 9 3 4 21 11 41 14 43 7 73
32 49 41 -9 3 -28 6 -42 6 -21 0 -24 2 -12 10 11 7 2 10 -32 10 -26 0 -50 5
-53 10 -3 6 -19 10 -36 10 -24 0 -183 37 -184 43 0 1 -6 13 -13 26 -11 18 -11
25 -2 31 8 5 10 18 5 38 l-6 31 73 3 c40 2 87 2 103 0 17 -1 127 -4 245 -5z
m6836 -71 c-6 -37 -4 -48 13 -65 17 -17 21 -34 21 -83 0 -58 -16 -128 -33
-144 -4 -4 -7 -15 -7 -25 0 -10 -13 -40 -29 -67 -16 -27 -32 -58 -35 -69 -4
-11 -17 -32 -29 -47 -12 -14 -35 -57 -51 -95 -18 -43 -36 -71 -48 -74 -11 -3
-18 -14 -18 -29 0 -17 -3 -19 -9 -9 -7 11 -10 10 -14 -5 -3 -10 -3 8 0 41 3
33 10 70 14 83 5 13 9 44 9 70 0 55 24 194 40 236 6 16 9 31 6 33 -2 3 4 23
15 46 10 23 19 57 19 75 0 17 5 32 10 32 6 0 10 7 10 15 0 13 33 55 44 55 3 0
7 -8 9 -17 3 -10 3 0 1 23 -4 46 9 64 44 64 23 0 24 -2 18 -44z m854 23 c11
-8 12 -12 3 -16 -7 -2 -13 -9 -13 -15 0 -35 -63 -128 -74 -110 -3 6 1 17 9 25
8 9 12 22 9 30 -3 8 7 28 21 45 15 18 24 36 20 42 -8 13 6 13 25 -1z m-86 -24
c-4 -8 -12 -15 -20 -15 -8 0 -14 7 -14 15 0 8 9 15 20 15 13 0 18 -5 14 -15z
m-929 -53 c-4 -15 -9 -36 -11 -47 -5 -37 -15 -80 -24 -100 -4 -11 -13 -42 -20
-70 -6 -27 -15 -66 -20 -85 -10 -39 -16 -69 -31 -149 -5 -29 -16 -59 -23 -66
-11 -12 -14 -6 -20 32 -3 25 -6 80 -6 122 0 42 -5 94 -9 116 -5 22 -13 85 -16
139 -7 90 -6 99 9 93 10 -4 19 -1 22 7 5 14 28 16 40 3 4 -4 -2 -16 -14 -27
-26 -24 -28 -40 -6 -40 8 0 41 27 72 59 57 60 70 63 57 13z m-161 -1104 c12
-337 25 -570 35 -633 6 -33 13 -99 17 -146 l7 -86 -34 -12 c-26 -9 -31 -14
-20 -20 8 -5 24 -5 37 -1 13 5 42 6 66 2 34 -6 43 -12 43 -27 0 -19 -7 -20
-115 -19 -63 1 -128 5 -145 9 -40 9 -93 33 -100 45 -9 15 -95 50 -121 50 -16
0 -24 -6 -25 -17 -1 -16 -2 -16 -6 1 -4 14 -11 17 -35 12 -16 -3 -36 -13 -44
-21 -9 -8 -26 -15 -40 -15 -13 0 -24 -4 -24 -9 0 -12 -53 -21 -65 -11 -5 4
-28 7 -50 7 -24 -1 -59 8 -87 22 -42 21 -51 23 -92 12 -54 -13 -96 -14 -96 -2
0 5 15 28 33 50 199 246 248 303 381 441 45 47 104 112 131 145 27 33 55 64
62 68 7 4 13 13 13 19 0 6 8 18 18 27 10 9 39 45 66 81 26 36 56 76 66 90 10
14 38 51 61 83 23 31 45 57 49 57 4 0 10 -91 14 -202z m-3234 6 c0 -2 -7 -4
-15 -4 -8 0 -15 4 -15 10 0 5 7 7 15 4 8 -4 15 -8 15 -10z m800 -275 c0 -18
-21 -19 -41 0 -29 26 -16 46 17 25 13 -9 24 -20 24 -25z m425 -476 c-7 -17 -8
-16 -17 4 -6 12 -7 30 -3 40 7 17 8 16 17 -4 6 -12 7 -30 3 -40z m-41 -34 c-6
-11 -24 -2 -24 11 0 5 7 7 15 4 8 -4 12 -10 9 -15z m1558 -161 c-9 -9 -15 -9
-24 0 -9 9 -7 12 12 12 19 0 21 -3 12 -12z m148 -1 c0 -19 -21 -37 -42 -37
-17 0 -17 1 -2 25 17 27 44 34 44 12z m60 9 c0 -11 -19 -15 -25 -6 -3 5 1 10
9 10 9 0 16 -2 16 -4z m53 -43 c-7 -2 -19 -2 -25 0 -7 3 -2 5 12 5 14 0 19 -2
13 -5z m-4554 -805 c0 -31 -1 -31 -10 -10 -5 13 -7 28 -3 33 10 16 14 9 13
-23z m81 -835 c1 -79 5 -113 15 -127 13 -17 13 -21 -6 -34 -16 -11 -23 -11
-34 -2 -17 14 -20 71 -4 87 8 8 7 19 -4 39 -8 16 -17 49 -21 73 -5 35 -3 46
11 57 38 29 43 19 43 -93z m-30 -261 c0 -12 -23 -32 -37 -32 -7 0 -13 9 -13
20 0 15 7 20 25 20 14 0 25 -4 25 -8z m-175 -622 c-3 -5 -12 -7 -20 -3 -21 7
-19 13 6 13 11 0 18 -4 14 -10z m-335 -110 c0 -5 -4 -10 -9 -10 -6 0 -13 5
-16 10 -3 6 1 10 9 10 9 0 16 -4 16 -10z"/>
<path d="M1593 7125 c-10 -10 -13 -64 -13 -193 0 -168 1 -180 21 -201 19 -20
28 -22 78 -18 31 3 71 8 89 12 43 10 98 66 105 107 3 18 9 46 13 62 7 30 -9
121 -32 172 -21 47 -85 74 -176 74 -50 -1 -77 -5 -85 -15z"/>
<path d="M7450 8537 c-27 -24 -44 -55 -56 -102 -13 -54 -16 -466 -4 -640 14
-196 28 -241 86 -268 38 -18 124 -23 124 -7 0 6 10 10 23 10 25 0 57 37 71 84
14 44 19 807 6 820 -5 5 -10 21 -10 34 0 14 -14 38 -34 58 -33 33 -37 34 -107
34 -63 0 -78 -4 -99 -23z"/>
<path d="M1166 8734 c-5 -12 -2 -15 10 -10 8 3 18 6 20 6 2 0 4 5 4 10 0 16
-27 11 -34 -6z"/>
<path d="M761 8704 c0 -11 3 -14 6 -6 3 7 2 16 -1 19 -3 4 -6 -2 -5 -13z"/>
<path d="M1200 8711 c0 -6 5 -13 10 -16 6 -3 10 1 10 9 0 9 -4 16 -10 16 -5 0
-10 -4 -10 -9z"/>
<path d="M700 8660 c0 -11 2 -20 4 -20 2 0 6 9 9 20 3 11 1 20 -4 20 -5 0 -9
-9 -9 -20z"/>
<path d="M651 8624 c0 -11 3 -14 6 -6 3 7 2 16 -1 19 -3 4 -6 -2 -5 -13z"/>
<path d="M1261 8574 c0 -11 3 -14 6 -6 3 7 2 16 -1 19 -3 4 -6 -2 -5 -13z"/>
<path d="M912 8548 c-16 -16 -15 -28 2 -28 7 0 16 9 19 20 6 23 -3 26 -21 8z"/>
<path d="M692 8498 c2 -6 12 -12 22 -14 14 -2 15 0 5 12 -14 17 -32 19 -27 2z"/>
<path d="M850 8496 c0 -9 9 -14 20 -13 11 1 20 7 20 14 0 7 -9 13 -20 13 -11
0 -20 -6 -20 -14z"/>
<path d="M1187 8464 c3 -9 9 -12 12 -7 3 4 10 11 15 16 5 4 0 7 -12 7 -15 0
-20 -4 -15 -16z"/>
<path d="M785 8460 c-28 -7 -27 -8 13 -9 27 -1 41 3 37 9 -7 11 -7 11 -50 0z"/>
<path d="M2495 8542 c-41 -8 -45 -27 -45 -213 0 -225 -5 -219 149 -203 50 6
68 13 96 39 20 17 35 41 35 53 0 12 5 22 10 22 14 0 12 156 -2 199 -16 44 -43
73 -83 88 -32 12 -127 21 -160 15z"/>
<path d="M2456 7868 c-11 -62 -11 -498 -1 -499 6 0 64 -1 130 -3 66 -2 136 -6
155 -9 19 -4 29 -4 23 -1 -7 3 -13 14 -13 24 0 10 -4 22 -10 25 -5 3 -10 17
-10 30 0 13 -4 27 -10 30 -5 3 -10 17 -10 31 0 13 -4 24 -10 24 -5 0 -10 13
-10 29 0 17 -4 33 -10 36 -5 3 -10 17 -10 30 0 13 -4 27 -10 30 -5 3 -10 19
-10 36 0 16 -4 29 -10 29 -5 0 -10 13 -10 29 0 17 -4 33 -10 36 -5 3 -10 18
-11 33 0 15 -8 41 -18 57 -16 27 -23 30 -74 33 l-56 3 -5 -33z"/>
<path d="M2505 7147 c-29 -18 -45 -34 -45 -46 0 -6 -3 -11 -8 -11 -4 0 -13
-18 -20 -40 -9 -29 -12 -140 -12 -402 1 -357 2 -376 35 -474 18 -57 148 -84
212 -44 71 43 77 81 77 505 -1 426 -7 466 -74 504 -42 24 -131 28 -165 8z"/>
<path d="M680 8256 c0 -9 5 -16 10 -16 6 0 10 4 10 9 0 6 -4 13 -10 16 -5 3
-10 -1 -10 -9z"/>
<path d="M1128 8243 c7 -3 16 -2 19 1 4 3 -2 6 -13 5 -11 0 -14 -3 -6 -6z"/>
<path d="M1225 8220 c-4 -6 6 -10 22 -10 22 0 25 2 13 10 -19 12 -27 12 -35 0z"/>
<path d="M682 8100 c0 -14 2 -19 5 -12 2 6 2 18 0 25 -3 6 -5 1 -5 -13z"/>
<path d="M1010 7970 c19 -13 30 -13 30 0 0 6 -10 10 -22 10 -19 0 -20 -2 -8
-10z"/>
<path d="M700 7950 c0 -5 5 -10 10 -10 6 0 10 5 10 10 0 6 -4 10 -10 10 -5 0
-10 -4 -10 -10z"/>
<path d="M851 7956 c7 -8 118 -10 126 -3 3 4 -24 7 -62 7 -38 0 -66 -2 -64 -4z"/>
<path d="M1055 7904 c-19 -15 -19 -15 10 -13 17 2 36 0 43 -4 6 -5 12 -4 12 2
0 5 6 11 13 14 6 2 4 3 -5 2 -10 -2 -21 1 -24 6 -8 13 -26 11 -49 -7z"/>
<path d="M988 7833 c7 -3 16 -2 19 1 4 3 -2 6 -13 5 -11 0 -14 -3 -6 -6z"/>
<path d="M925 7820 c-18 -8 -17 -9 8 -9 15 -1 27 4 27 9 0 12 -8 12 -35 0z"/>
<path d="M850 7790 c19 -13 30 -13 30 0 0 6 -10 10 -22 10 -19 0 -20 -2 -8
-10z"/>
<path d="M828 7753 c6 -2 18 -2 25 0 6 3 1 5 -13 5 -14 0 -19 -2 -12 -5z"/>
<path d="M755 7740 c-3 -5 3 -10 14 -10 12 0 21 5 21 10 0 6 -6 10 -14 10 -8
0 -18 -4 -21 -10z"/>
<path d="M1055 7720 c19 -8 73 -14 64 -6 -2 2 -22 6 -44 9 -28 5 -34 4 -20 -3z"/>
<path d="M800 7710 c0 -5 7 -7 15 -4 8 4 15 8 15 10 0 2 -7 4 -15 4 -8 0 -15
-4 -15 -10z"/>
<path d="M740 7695 c0 -17 9 -19 28 -6 11 7 10 10 -3 15 -23 9 -25 8 -25 -9z"/>
<path d="M938 7693 c7 -3 16 -2 19 1 4 3 -2 6 -13 5 -11 0 -14 -3 -6 -6z"/>
<path d="M1200 7690 c0 -5 7 -7 15 -4 8 4 15 8 15 10 0 2 -7 4 -15 4 -8 0 -15
-4 -15 -10z"/>
<path d="M855 7680 c15 -6 8 -9 -30 -12 -35 -3 -26 -5 30 -5 44 0 69 2 55 4
-14 3 -29 9 -34 14 -6 5 -17 9 -25 8 -11 0 -10 -3 4 -9z"/>
<path d="M1263 7500 c0 -36 2 -50 4 -32 2 17 2 47 0 65 -2 17 -4 3 -4 -33z"/>
<path d="M944 7409 c-9 -15 1 -21 26 -17 21 3 21 3 1 15 -14 9 -22 9 -27 2z"/>
<path d="M1245 7400 c-3 -5 1 -10 9 -10 8 0 18 5 21 10 3 6 -1 10 -9 10 -8 0
-18 -4 -21 -10z"/>
<path d="M686 7392 c-9 -14 9 -31 23 -23 7 5 10 14 7 20 -8 13 -23 14 -30 3z"/>
<path d="M1120 7384 c0 -8 5 -12 10 -9 6 4 8 11 5 16 -9 14 -15 11 -15 -7z"/>
<path d="M768 7373 c7 -3 16 -2 19 1 4 3 -2 6 -13 5 -11 0 -14 -3 -6 -6z"/>
<path d="M698 7273 c6 -2 18 -2 25 0 6 3 1 5 -13 5 -14 0 -19 -2 -12 -5z"/>
<path d="M893 7253 c9 -2 23 -2 30 0 6 3 -1 5 -18 5 -16 0 -22 -2 -12 -5z"/>
<path d="M978 7253 c12 -2 32 -2 45 0 12 2 2 4 -23 4 -25 0 -35 -2 -22 -4z"/>
<path d="M1120 7256 c0 -2 18 -6 40 -8 22 -2 40 0 40 4 0 5 -18 8 -40 8 -22 0
-40 -2 -40 -4z"/>
<path d="M740 7240 l-35 -7 35 -2 c19 0 42 4 50 9 13 9 13 10 0 9 -8 -1 -31
-5 -50 -9z"/>
<path d="M1130 7060 c0 -5 9 -10 21 -10 11 0 17 5 14 10 -3 6 -13 10 -21 10
-8 0 -14 -4 -14 -10z"/>
<path d="M1200 7050 c0 -5 7 -7 15 -4 8 4 15 8 15 10 0 2 -7 4 -15 4 -8 0 -15
-4 -15 -10z"/>
<path d="M1118 7033 c6 -2 18 -2 25 0 6 3 1 5 -13 5 -14 0 -19 -2 -12 -5z"/>
<path d="M888 6993 c7 -3 16 -2 19 1 4 3 -2 6 -13 5 -11 0 -14 -3 -6 -6z"/>
<path d="M928 6993 c7 -3 16 -2 19 1 4 3 -2 6 -13 5 -11 0 -14 -3 -6 -6z"/>
<path d="M1058 6843 c12 -2 32 -2 45 0 12 2 2 4 -23 4 -25 0 -35 -2 -22 -4z"/>
<path d="M775 6740 c-3 -5 1 -10 9 -10 9 0 16 5 16 10 0 6 -4 10 -9 10 -6 0
-13 -4 -16 -10z"/>
<path d="M705 6720 c-3 -5 -2 -10 4 -10 5 0 13 5 16 10 3 6 2 10 -4 10 -5 0
-13 -4 -16 -10z"/>
<path d="M675 6700 c-3 -5 -1 -10 4 -10 6 0 11 5 11 10 0 6 -2 10 -4 10 -3 0
-8 -4 -11 -10z"/>
<path d="M727 6681 c-9 -16 -17 -45 -17 -65 0 -42 25 -87 45 -80 7 3 16 1 20
-5 7 -12 347 -14 400 -2 17 3 35 16 42 31 10 21 13 22 19 7 3 -9 4 -24 1 -32
-4 -8 -1 -17 5 -21 7 -5 8 7 4 37 -3 24 -7 55 -9 69 -7 50 -18 69 -49 79 -18
7 -115 11 -237 11 l-207 0 -17 -29z"/>
<path d="M1254 6674 c3 -9 6 -22 6 -30 0 -9 4 -13 9 -10 11 7 2 56 -11 56 -6
0 -7 -7 -4 -16z"/>
<path d="M650 6619 c0 -5 5 -7 10 -4 6 3 10 8 10 11 0 2 -4 4 -10 4 -5 0 -10
-5 -10 -11z"/>
<path d="M681 6574 c0 -11 3 -14 6 -6 3 7 2 16 -1 19 -3 4 -6 -2 -5 -13z"/>
<path d="M694 6537 c3 -10 6 -23 6 -28 0 -5 5 -9 10 -9 14 0 12 13 -6 36 -14
17 -15 17 -10 1z"/>
<path d="M740 6495 c0 -8 8 -15 18 -15 10 0 23 -5 30 -12 7 -7 12 -9 12 -4 0
11 -22 31 -42 39 -12 4 -18 2 -18 -8z"/>
<path d="M1144 6490 c17 -6 36 -5 45 0 11 7 3 9 -29 9 -42 -1 -43 -1 -16 -9z"/>
<path d="M862 6381 c-11 -7 -11 -9 2 -14 10 -4 16 -1 16 8 0 17 -1 17 -18 6z"/>
<path d="M770 6335 c0 -8 7 -15 15 -15 8 0 15 7 15 15 0 8 -7 15 -15 15 -8 0
-15 -7 -15 -15z"/>
<path d="M778 6273 c7 -3 16 -2 19 1 4 3 -2 6 -13 5 -11 0 -14 -3 -6 -6z"/>
<path d="M875 6260 l-30 -8 32 -1 c17 0 35 4 38 9 7 11 3 11 -40 0z"/>
<path d="M943 6233 c9 -2 25 -2 35 0 9 3 1 5 -18 5 -19 0 -27 -2 -17 -5z"/>
<path d="M1040 6202 c0 -5 7 -13 16 -16 25 -10 92 -7 99 4 4 6 -11 10 -39 10
-24 0 -51 3 -60 6 -9 3 -16 2 -16 -4z"/>
<path d="M1173 6153 c9 -2 25 -2 35 0 9 3 1 5 -18 5 -19 0 -27 -2 -17 -5z"/>
<path d="M1040 6140 c0 -6 23 -10 52 -10 62 0 60 5 -4 13 -29 4 -48 3 -48 -3z"/>
<path d="M835 6080 l-40 -7 43 -2 c23 0 42 4 42 9 0 6 -1 9 -2 9 -2 -1 -21 -5
-43 -9z"/>
<path d="M716 6034 c-5 -14 -4 -15 9 -4 17 14 19 20 6 20 -5 0 -12 -7 -15 -16z"/>
<path d="M718 5973 c7 -3 16 -2 19 1 4 3 -2 6 -13 5 -11 0 -14 -3 -6 -6z"/>
<path d="M768 5973 c6 -2 18 -2 25 0 6 3 1 5 -13 5 -14 0 -19 -2 -12 -5z"/>
<path d="M918 5953 c7 -3 16 -2 19 1 4 3 -2 6 -13 5 -11 0 -14 -3 -6 -6z"/>
<path d="M4963 8561 c-33 -34 -61 -41 -162 -41 -100 0 -101 0 -101 -24 0 -14
-4 -28 -10 -31 -12 -7 -12 -597 -1 -890 7 -193 5 -214 -29 -242 -8 -7 -35 -13
-59 -13 -42 0 -43 -1 -37 -27 4 -16 10 -52 13 -81 3 -29 9 -55 14 -58 5 -3 9
-23 9 -45 0 -24 4 -38 10 -34 6 4 10 -8 10 -27 0 -42 20 -88 38 -88 8 0 28 10
45 22 30 22 40 23 147 15 14 -1 28 -6 32 -12 4 -5 8 3 8 18 0 16 -4 26 -9 23
-5 -3 -14 1 -21 9 -7 8 -21 15 -31 15 -24 0 -34 17 -20 34 7 8 11 18 10 22 -5
27 3 44 20 44 46 0 51 9 51 84 0 97 23 136 79 136 l39 0 8 178 c10 245 11 927
0 985 -9 51 -24 59 -53 28z m-44 -1144 c-2 -1 -12 -9 -21 -16 -15 -12 -18 -11
-18 3 0 10 8 16 22 16 12 0 19 -1 17 -3z m-235 -325 c7 -12 -5 -52 -15 -52 -5
0 -9 14 -9 30 0 28 13 40 24 22z m56 -36 c-7 -9 -16 -16 -20 -16 -8 0 -10 29
-4 49 4 12 7 12 21 -2 13 -13 14 -19 3 -31z"/>
<path d="M5733 8407 c-7 -15 -13 -47 -13 -70 0 -24 -4 -47 -9 -52 -9 -10 -14
-47 -27 -177 -3 -32 -9 -58 -14 -58 -4 0 -11 -24 -13 -52 -3 -29 -9 -70 -13
-92 -9 -51 1 -56 107 -56 70 0 88 3 93 16 9 24 7 54 -4 54 -5 0 -10 24 -10 54
0 30 -4 58 -10 61 -5 3 -10 28 -10 56 0 27 -4 49 -9 49 -5 0 -12 24 -15 53
-10 98 -17 142 -26 162 -5 11 -11 33 -12 50 l-3 30 -12 -28z"/>
<path d="M5619 7627 c-9 -7 -19 -25 -23 -42 -4 -16 -12 -48 -18 -70 -6 -22
-11 -63 -12 -91 -1 -28 -6 -57 -12 -65 -6 -8 -14 -22 -17 -31 -5 -14 -1 -16
29 -11 31 5 34 3 35 -18 l0 -24 9 23 c5 12 12 22 15 22 3 0 10 -10 15 -22 8
-22 9 -22 9 5 1 45 29 64 80 55 27 -5 49 -4 57 2 8 7 21 7 38 0 31 -11 116
-14 116 -3 0 4 -7 50 -16 102 -18 109 -37 155 -71 170 -33 15 -214 14 -234 -2z"/>
<path d="M5147 7314 c-4 -4 -7 -20 -7 -34 0 -26 2 -27 33 -21 23 5 33 13 35
29 2 14 -2 22 -11 22 -9 0 -22 2 -29 5 -8 3 -17 2 -21 -1z"/>
<path d="M6840 7147 c-52 -25 -80 -73 -80 -137 0 -21 -5 -51 -10 -66 -8 -19
-8 -30 0 -38 5 -5 10 -50 10 -98 0 -52 4 -88 10 -88 6 0 10 7 10 16 0 8 5 12
11 9 6 -4 8 -13 5 -21 -3 -8 -1 -14 4 -14 6 0 10 -9 10 -20 0 -26 31 -26 54
-1 17 19 52 18 40 -1 -3 -5 2 -15 12 -23 15 -11 17 -16 7 -26 -19 -19 -16 -40
3 -32 11 4 15 2 12 -7 -2 -7 -17 -14 -32 -16 -41 -4 -53 -20 -33 -42 22 -24
21 -34 -3 -62 -24 -27 -26 -53 -5 -74 8 -8 15 -23 15 -34 0 -39 65 -44 103 -8
14 13 40 27 57 31 l30 7 0 301 c0 277 -2 307 -20 357 -27 75 -60 100 -130 99
-30 0 -66 -6 -80 -12z m135 -197 c-3 -5 -12 -10 -20 -10 -8 0 -17 5 -20 10 -4
6 5 10 20 10 15 0 24 -4 20 -10z m-181 -85 c-4 -8 -8 -15 -10 -15 -2 0 -4 7
-4 15 0 8 4 15 10 15 5 0 7 -7 4 -15z m64 -74 c12 0 22 -5 22 -10 0 -16 -40
-24 -55 -11 -8 6 -23 9 -35 5 -11 -3 -20 -2 -20 3 0 15 8 18 37 16 15 -1 38
-2 51 -3z m66 -26 c3 -9 0 -15 -9 -15 -8 0 -15 7 -15 15 0 8 4 15 9 15 5 0 11
-7 15 -15z m136 11 c0 -3 -4 -8 -10 -11 -5 -3 -10 -1 -10 4 0 6 5 11 10 11 6
0 10 -2 10 -4z m-80 -79 c0 -8 -3 -16 -6 -20 -8 -8 -33 16 -27 26 7 12 33 8
33 -6z"/>
<path d="M7282 7140 c0 -14 2 -19 5 -12 2 6 2 18 0 25 -3 6 -5 1 -5 -13z"/>
<path d="M6063 7113 c9 -2 17 -9 17 -14 0 -6 5 -7 10 -4 6 3 10 1 10 -6 0 -7
3 -9 6 -6 12 11 -17 37 -40 36 -17 -1 -17 -2 -3 -6z"/>
<path d="M4377 6960 c-3 -30 -9 -77 -13 -105 -3 -27 -10 -54 -15 -59 -5 -6 -9
-40 -9 -76 0 -63 1 -67 22 -65 13 1 28 -4 35 -11 17 -17 16 -27 -1 -21 -7 3
-19 0 -25 -6 -8 -8 -11 -8 -11 1 0 7 -6 12 -14 12 -8 0 -17 10 -19 23 -2 12
-5 4 -6 -19 -1 -37 1 -41 22 -40 14 1 24 -6 27 -19 3 -11 16 -21 29 -23 20 -3
21 -1 12 17 -15 27 -14 31 8 31 12 0 21 -8 24 -22 2 -13 5 12 6 55 1 50 -3 76
-9 72 -6 -4 -10 11 -11 37 0 24 -3 52 -6 63 -3 11 -7 38 -10 60 -2 22 -8 49
-13 60 -5 11 -11 36 -13 55 -2 30 -4 27 -10 -20z m2 -222 c0 -7 -4 -22 -9 -33
-7 -17 -9 -15 -9 13 -1 17 4 32 9 32 6 0 10 -6 9 -12z"/>
<path d="M4663 6845 c0 -22 2 -30 4 -17 2 12 2 30 0 40 -3 9 -5 -1 -4 -23z"/>
<path d="M6502 6775 c0 -16 2 -22 5 -12 2 9 2 23 0 30 -3 6 -5 -1 -5 -18z"/>
<path d="M6767 6656 c-4 -10 -5 -21 -2 -24 9 -9 17 6 13 25 -3 17 -4 17 -11
-1z"/>
<path d="M4761 6624 c0 -11 3 -14 6 -6 3 7 2 16 -1 19 -3 4 -6 -2 -5 -13z"/>
<path d="M8945 6549 c-4 -6 -5 -12 -2 -15 2 -3 7 2 10 11 7 17 1 20 -8 4z"/>
<path d="M8921 6518 c-1 -10 -5 -18 -10 -18 -5 0 -11 -9 -14 -20 -3 -11 -17
-24 -31 -30 -28 -10 -27 -35 4 -43 14 -3 21 5 31 37 7 22 17 46 22 53 5 7 7
18 4 25 -4 8 -6 7 -6 -4z"/>
<path d="M4460 6503 c0 -22 -32 -39 -85 -46 -16 -2 -4 -5 27 -6 55 -1 57 0 63
30 4 17 4 33 1 36 -3 4 -6 -3 -6 -14z"/>
<path d="M4742 6425 c0 -16 2 -22 5 -12 2 9 2 23 0 30 -3 6 -5 -1 -5 -18z"/>
<path d="M3900 6368 c0 -35 1 -36 27 -29 32 9 43 31 14 31 -11 0 -25 8 -30 18
-8 14 -10 10 -11 -20z"/>
<path d="M4021 6364 c0 -11 3 -14 6 -6 3 7 2 16 -1 19 -3 4 -6 -2 -5 -13z"/>
<path d="M4001 6354 c0 -11 3 -14 6 -6 3 7 2 16 -1 19 -3 4 -6 -2 -5 -13z"/>
<path d="M6865 6330 c-3 -5 -1 -10 4 -10 6 0 11 5 11 10 0 6 -2 10 -4 10 -3 0
-8 -4 -11 -10z"/>
<path d="M7320 6300 c0 -6 7 -10 15 -10 8 0 15 2 15 4 0 2 -7 6 -15 10 -8 3
-15 1 -15 -4z"/>
<path d="M8100 6279 c0 -5 5 -7 10 -4 6 3 10 8 10 11 0 2 -4 4 -10 4 -5 0 -10
-5 -10 -11z"/>
<path d="M7300 6236 c0 -10 28 -13 41 -5 10 6 7 9 -13 9 -16 0 -28 -2 -28 -4z"/>
<path d="M6928 5873 c12 -2 30 -2 40 0 9 3 -1 5 -23 4 -22 0 -30 -2 -17 -4z"/>
<path d="M5520 5860 c0 -5 5 -10 10 -10 6 0 10 5 10 10 0 6 -4 10 -10 10 -5 0
-10 -4 -10 -10z"/>
<path d="M5808 5853 c7 -3 16 -2 19 1 4 3 -2 6 -13 5 -11 0 -14 -3 -6 -6z"/>
<path d="M7048 5853 c6 -2 18 -2 25 0 6 3 1 5 -13 5 -14 0 -19 -2 -12 -5z"/>
<path d="M3978 5833 c7 -3 16 -2 19 1 4 3 -2 6 -13 5 -11 0 -14 -3 -6 -6z"/>
<path d="M6764 5730 c0 -63 1 -86 3 -50 2 35 9 68 16 72 9 6 9 8 0 8 -7 0 -14
19 -16 43 -2 23 -3 -10 -3 -73z"/>
<path d="M6903 5790 c0 -30 2 -43 4 -27 2 15 2 39 0 55 -2 15 -4 2 -4 -28z"/>
<path d="M7182 5805 c0 -16 2 -22 5 -12 2 9 2 23 0 30 -3 6 -5 -1 -5 -18z"/>
<path d="M5802 5790 c0 -19 2 -27 5 -17 2 9 2 25 0 35 -3 9 -5 1 -5 -18z"/>
<path d="M5643 5775 c0 -22 2 -30 4 -17 2 12 2 30 0 40 -3 9 -5 -1 -4 -23z"/>
<path d="M7041 5794 c0 -11 3 -14 6 -6 3 7 2 16 -1 19 -3 4 -6 -2 -5 -13z"/>
<path d="M6102 5765 c0 -16 2 -22 5 -12 2 9 2 23 0 30 -3 6 -5 -1 -5 -18z"/>
<path d="M5742 5750 c0 -19 2 -27 5 -17 2 9 2 25 0 35 -3 9 -5 1 -5 -18z"/>
<path d="M6958 5753 c6 -2 18 -2 25 0 6 3 1 5 -13 5 -14 0 -19 -2 -12 -5z"/>
<path d="M7041 5734 c0 -11 3 -14 6 -6 3 7 2 16 -1 19 -3 4 -6 -2 -5 -13z"/>
<path d="M6903 5680 c0 -30 2 -43 4 -27 2 15 2 39 0 55 -2 15 -4 2 -4 -28z"/>
<path d="M6191 5693 c-7 -17 -11 -40 -8 -50 3 -12 5 -10 6 9 0 14 6 28 12 30
6 2 10 13 7 23 -3 17 -6 14 -17 -12z"/>
<path d="M6080 5705 c-6 -24 -4 -73 3 -66 5 5 7 24 4 42 -2 19 -5 30 -7 24z"/>
<path d="M6340 5690 c0 -5 5 -10 10 -10 6 0 10 5 10 10 0 6 -4 10 -10 10 -5 0
-10 -4 -10 -10z"/>
<path d="M7041 5674 c0 -11 3 -14 6 -6 3 7 2 16 -1 19 -3 4 -6 -2 -5 -13z"/>
<path d="M5642 5655 c0 -16 2 -22 5 -12 2 9 2 23 0 30 -3 6 -5 -1 -5 -18z"/>
<path d="M6621 5644 c0 -11 3 -14 6 -6 3 7 2 16 -1 19 -3 4 -6 -2 -5 -13z"/>
<path d="M5823 5613 c15 -2 39 -2 55 0 15 2 2 4 -28 4 -30 0 -43 -2 -27 -4z"/>
<path d="M4378 5453 c7 -3 16 -2 19 1 4 3 -2 6 -13 5 -11 0 -14 -3 -6 -6z"/>
<path d="M2481 4924 c0 -11 3 -14 6 -6 3 7 2 16 -1 19 -3 4 -6 -2 -5 -13z"/>
<path d="M6036 4705 c-3 -8 -1 -15 4 -15 6 0 10 7 10 15 0 8 -2 15 -4 15 -2 0
-6 -7 -10 -15z"/>
<path d="M6184 4508 c3 -13 6 -29 6 -35 0 -15 86 -18 94 -4 9 14 -53 61 -81
61 -21 0 -24 -3 -19 -22z"/>
<path d="M4218 4473 c7 -3 16 -2 19 1 4 3 -2 6 -13 5 -11 0 -14 -3 -6 -6z"/>
<path d="M6160 4419 c0 -5 5 -7 10 -4 6 3 10 8 10 11 0 2 -4 4 -10 4 -5 0 -10
-5 -10 -11z"/>
<path d="M7595 4120 c-3 -6 1 -7 9 -4 18 7 21 14 7 14 -6 0 -13 -4 -16 -10z"/>
<path d="M5025 3750 c4 -6 11 -8 16 -5 14 9 11 15 -7 15 -8 0 -12 -5 -9 -10z"/>
<path d="M2861 3364 c0 -11 3 -14 6 -6 3 7 2 16 -1 19 -3 4 -6 -2 -5 -13z"/>
<path d="M2860 3296 c0 -8 5 -18 10 -21 6 -3 10 1 10 9 0 8 -4 18 -10 21 -5 3
-10 -1 -10 -9z"/>
<path d="M4347 3293 c-13 -12 -7 -33 8 -33 8 0 15 9 15 20 0 20 -11 26 -23 13z"/>
<path d="M4720 3194 c0 -25 -2 -26 -42 -20 -24 4 -65 1 -93 -5 -93 -20 -115
-21 -130 -9 -13 10 -19 10 -35 -5 -14 -13 -28 -15 -59 -10 -36 6 -41 10 -41
33 0 21 -2 24 -10 12 -5 -8 -10 -25 -10 -37 0 -30 -55 -83 -132 -128 -39 -22
-136 -91 -183 -130 -27 -23 -67 -51 -88 -64 -21 -13 -43 -28 -50 -34 -7 -7
-34 -23 -60 -37 -27 -14 -55 -33 -64 -42 -9 -10 -22 -18 -29 -18 -7 0 -14 -4
-16 -8 -1 -4 -41 -33 -88 -64 -47 -31 -94 -64 -106 -74 -12 -11 -37 -34 -58
-51 -20 -18 -41 -44 -46 -58 -14 -36 -4 -224 13 -266 26 -63 47 -136 47 -167
0 -27 5 -32 38 -41 20 -6 42 -11 49 -11 6 0 21 -13 33 -30 12 -16 29 -30 39
-30 9 0 33 -8 52 -18 22 -11 62 -19 110 -20 40 -2 76 -7 77 -12 2 -6 10 -10
17 -10 7 0 15 -6 18 -12 3 -10 7 -10 20 1 13 10 40 12 114 8 156 -9 316 -26
344 -38 20 -8 39 -7 75 3 30 9 68 12 99 8 28 -4 70 -2 95 3 25 5 61 12 81 16
20 5 52 17 70 28 19 11 60 25 91 32 32 7 60 17 63 22 4 5 14 9 24 9 10 0 24 7
32 16 15 18 69 12 106 -12 12 -8 31 -14 41 -14 10 0 22 -4 28 -9 14 -12 104
-35 111 -27 3 3 -4 6 -16 6 -12 0 -20 4 -17 8 2 4 -10 14 -27 22 -18 7 -37 20
-42 28 -6 7 -26 17 -44 20 -27 6 -39 17 -61 58 -16 28 -43 65 -59 83 -17 18
-31 39 -31 46 0 15 -76 95 -90 95 -5 0 -10 8 -10 19 0 10 -9 30 -20 44 -11 14
-20 32 -20 40 0 8 -11 22 -25 31 -14 9 -25 25 -25 35 0 10 -13 32 -30 49 -16
18 -30 37 -30 44 -1 19 -29 53 -36 45 -12 -11 -34 14 -34 37 0 12 5 27 11 33
5 5 9 30 7 54 -2 32 2 49 15 62 9 9 17 28 17 42 0 20 5 25 24 25 14 0 28 5 31
10 3 6 16 10 29 10 13 0 31 9 42 21 16 17 16 22 4 31 -13 8 -12 9 2 5 9 -3 24
1 35 8 15 12 16 17 6 34 -17 27 -16 41 2 41 26 0 16 28 -20 57 -29 23 -35 35
-35 65 0 48 -19 88 -41 88 -21 0 -38 22 -21 28 22 7 13 22 -13 22 -20 0 -25
-5 -25 -26z m36 -271 c-11 -11 -17 4 -9 23 7 18 8 18 11 1 2 -10 1 -21 -2 -24z
m-373 3 c3 -12 -30 -32 -39 -24 -11 12 5 40 21 36 9 -2 17 -7 18 -12z m417
-47 c0 -18 -2 -19 -15 -9 -15 12 -12 30 6 30 5 0 9 -10 9 -21z m-355 -8 c3
-11 3 -31 -1 -45 -5 -21 -12 -26 -39 -26 -26 0 -34 -5 -37 -20 -3 -20 -4 -20
-26 -4 l-24 16 24 12 c12 6 29 26 37 43 12 28 24 37 53 42 4 0 9 -8 13 -18z
m85 -90 c0 -31 -40 -92 -59 -89 -19 4 -45 54 -37 74 3 8 15 14 26 14 11 0 20
5 20 10 0 6 11 10 25 10 18 0 25 -5 25 -19z m90 -131 c0 -5 -5 -10 -11 -10 -5
0 -7 5 -4 10 3 6 8 10 11 10 2 0 4 -4 4 -10z"/>
<path d="M2961 2614 c0 -11 3 -14 6 -6 3 7 2 16 -1 19 -3 4 -6 -2 -5 -13z"/>
<path d="M2560 385 c0 -8 4 -15 9 -15 5 0 11 7 15 15 3 9 0 15 -9 15 -8 0 -15
-7 -15 -15z"/>
</g>
</svg>
